<svg xmlns="http://www.w3.org/2000/svg" version="1.1" xmlns:xlink="http://www.w3.org/1999/xlink" xmlns:svgjs="http://svgjs.dev/svgjs" width="1440" height="560" preserveAspectRatio="none" viewBox="0 0 1440 560"><g mask="url(&quot;#SvgjsMask1571&quot;)" fill="none"><rect width="1440" height="560" x="0" y="0" fill="url(&quot;#SvgjsLinearGradient1572&quot;)"></rect><path d="M1560 560L0 560 L0 376.28Q57.09 313.37, 120 370.45Q158.62 289.06, 240 327.68Q286.04 253.72, 360 299.75Q444.13 263.88, 480 348.01Q553.13 301.13, 600 374.26Q605.22 307.48, 672 312.7Q694.36 263.06, 744 285.41Q824.34 245.75, 864 326.09Q910.91 301, 936 347.91Q972.9 264.82, 1056 301.72Q1125.28 251, 1176 320.28Q1263.7 287.98, 1296 375.68Q1314.72 322.4, 1368 341.12Q1390.11 291.23, 1440 313.34Q1523.49 276.83, 1560 360.32z" fill="#182f5d"></path><path d="M1464 560L0 560 L0 391.99Q15.86 335.85, 72 351.7Q147.05 306.75, 192 381.79Q255.06 372.86, 264 435.92Q316.58 368.5, 384 421.09Q399.64 364.73, 456 380.36Q525.12 329.48, 576 398.6Q652.98 355.58, 696 432.55Q696.53 361.08, 768 361.61Q800.66 322.27, 840 354.93Q916.56 311.49, 960 388.04Q1042.08 350.12, 1080 432.2Q1099.11 331.31, 1200 350.41Q1274.2 304.61, 1320 378.81Q1350.6 337.4, 1392 368Q1421.62 325.62, 1464 355.23z" fill="#25467d"></path><path d="M1560 560L0 560 L0 456.82Q75.38 412.2, 120 487.59Q124.53 420.12, 192 424.64Q255.16 415.8, 264 478.96Q318.64 461.6, 336 516.24Q348.14 456.38, 408 468.53Q424.15 412.68, 480 428.83Q553.07 381.89, 600 454.96Q674.33 409.28, 720 483.61Q793.06 436.67, 840 509.72Q855.8 453.52, 912 469.32Q984.55 421.88, 1032 494.43Q1044.17 434.6, 1104 446.77Q1171.39 394.16, 1224 461.55Q1279.95 445.5, 1296 501.45Q1339.46 472.91, 1368 516.37Q1380.65 457.02, 1440 469.67Q1478.64 388.31, 1560 426.95z" fill="#356cb1"></path><path d="M1488 560L0 560 L0 565.72Q13.96 507.68, 72 521.65Q141.15 470.8, 192 539.94Q232.14 460.08, 312 500.22Q399.19 467.41, 432 554.61Q456.99 507.6, 504 532.59Q558.32 514.91, 576 569.23Q617.85 539.08, 648 580.93Q693.67 506.6, 768 552.27Q804.87 469.14, 888 506.01Q979.82 477.83, 1008 569.64Q1045.47 487.11, 1128 524.58Q1173.15 449.73, 1248 494.88Q1316.1 442.98, 1368 511.07Q1462.14 485.21, 1488 579.35z" fill="white"></path></g><defs><mask id="SvgjsMask1571"><rect width="1440" height="560" fill="#ffffff"></rect></mask><linearGradient x1="84.72%" y1="139.29%" x2="15.28%" y2="-39.29%" gradientUnits="userSpaceOnUse" id="SvgjsLinearGradient1572"><stop stop-color="#0e2a47" offset="0"></stop><stop stop-color="rgba(255, 255, 255, 1)" offset="1"></stop></linearGradient></defs></svg>