<svg xmlns="http://www.w3.org/2000/svg" version="1.1" xmlns:xlink="http://www.w3.org/1999/xlink" xmlns:svgjs="http://svgjs.dev/svgjs" width="1440" height="560" preserveAspectRatio="none" viewBox="0 0 1440 560"><g mask="url(&quot;#SvgjsMask1546&quot;)" fill="none"><rect width="1440" height="560" x="0" y="0" fill="url(&quot;#SvgjsLinearGradient1547&quot;)"></rect><path d="M1512 560L0 560 L0 285.27Q45.9 259.17, 72 305.08Q146.27 259.35, 192 333.61Q238.47 308.08, 264 354.55Q332.3 302.85, 384 371.15Q424.23 291.38, 504 331.61Q552.91 308.52, 576 357.44Q644.55 305.99, 696 374.54Q726.8 285.35, 816 316.15Q840.34 268.49, 888 292.83Q929.25 262.08, 960 303.33Q1029.88 301.22, 1032 371.1Q1057.96 325.06, 1104 351.02Q1131.07 306.09, 1176 333.16Q1233.34 318.5, 1248 375.84Q1296.85 304.68, 1368 353.53Q1390.67 304.2, 1440 326.88Q1469.83 284.7, 1512 314.53z" fill="rgba(121, 109, 216, 1)"></path><path d="M1464 560L0 560 L0 377.36Q81.39 338.75, 120 420.15Q191.12 371.26, 240 442.38Q243.57 373.95, 312 377.53Q377.97 323.5, 432 389.46Q491.03 376.49, 504 435.52Q534.8 346.32, 624 377.12Q652.51 333.63, 696 362.15Q746.46 340.61, 768 391.06Q823.52 374.58, 840 430.1Q888.53 358.63, 960 407.17Q969.72 344.89, 1032 354.61Q1106.07 308.68, 1152 382.75Q1181.24 340, 1224 369.24Q1312.06 337.3, 1344 425.35Q1367.34 328.69, 1464 352.03z" fill="rgba(87, 74, 191, 1)"></path><path d="M1512 560L0 560 L0 428.71Q54.17 410.88, 72 465.05Q123.4 396.45, 192 447.85Q285.87 421.72, 312 515.59Q355.48 439.07, 432 482.55Q476.74 455.29, 504 500.03Q540.04 416.07, 624 452.11Q696.42 404.53, 744 476.96Q761.76 422.73, 816 440.49Q881.76 386.25, 936 452.01Q978.88 422.89, 1008 465.78Q1085.57 423.35, 1128 500.92Q1179.29 432.21, 1248 483.5Q1298.59 462.08, 1320 512.67Q1341.54 414.21, 1440 435.75Q1469.47 393.23, 1512 422.7z" fill="rgba(62, 45, 192, 1)"></path><path d="M1512 560L0 560 L0 570.3Q40.7 539, 72 579.69Q83.97 519.66, 144 531.64Q187.05 454.69, 264 497.74Q353.55 467.29, 384 556.84Q438.98 491.82, 504 546.79Q551.99 474.78, 624 522.77Q665.92 492.69, 696 534.62Q777.42 496.04, 816 577.46Q837.01 478.48, 936 499.49Q977.68 469.17, 1008 510.85Q1071.49 502.34, 1080 565.82Q1107.39 473.21, 1200 500.6Q1230.73 459.34, 1272 490.07Q1368.78 466.85, 1392 563.63Q1459.63 511.25, 1512 578.88z" fill="rgba(180, 173, 232, 1)"></path></g><defs><mask id="SvgjsMask1546"><rect width="1440" height="560" fill="#ffffff"></rect></mask><linearGradient x1="50%" y1="0%" x2="50%" y2="100%" gradientUnits="userSpaceOnUse" id="SvgjsLinearGradient1547"><stop stop-color="rgba(7, 14, 115, 1)" offset="0.23"></stop><stop stop-color="rgba(168, 171, 225, 1)" offset="0.88"></stop></linearGradient></defs></svg>