<svg xmlns="http://www.w3.org/2000/svg" version="1.1" xmlns:xlink="http://www.w3.org/1999/xlink" xmlns:svgjs="http://svgjs.dev/svgjs" width="1440" height="560" preserveAspectRatio="none" viewBox="0 0 1440 560"><g mask="url(&quot;#SvgjsMask1234&quot;)" fill="none"><rect width="1440" height="560" x="0" y="0" fill="url(&quot;#SvgjsLinearGradient1235&quot;)"></rect><path d="M1560 560L0 560 L0 330.02Q46.68 304.7, 72 351.38Q116.17 323.55, 144 367.72Q151.07 302.79, 216 309.86Q243.97 265.83, 288 293.8Q378.66 264.46, 408 355.12Q453.12 328.24, 480 373.35Q487.99 309.34, 552 317.32Q603.05 248.37, 672 299.42Q757.96 265.38, 792 351.34Q842.19 281.53, 912 331.72Q925.54 273.26, 984 286.81Q1031.55 262.36, 1056 309.9Q1145.29 279.19, 1176 368.48Q1200.56 321.04, 1248 345.6Q1262.8 288.4, 1320 303.2Q1393.27 256.47, 1440 329.73Q1522 291.74, 1560 373.74z" fill="rgba(84, 214, 84, 1)"></path><path d="M1512 560L0 560 L0 439.64Q9.6 377.24, 72 386.84Q123.91 318.75, 192 370.66Q253.66 360.32, 264 421.98Q288.16 374.14, 336 398.31Q390.88 333.19, 456 388.08Q480.06 340.14, 528 364.2Q607.25 323.44, 648 402.69Q697.41 380.1, 720 429.51Q748.36 337.87, 840 366.23Q912.6 318.83, 960 391.43Q1018.09 377.51, 1032 435.6Q1053.88 385.49, 1104 407.37Q1126.29 357.66, 1176 379.95Q1197.88 329.83, 1248 351.71Q1291.42 323.13, 1320 366.55Q1392.29 366.84, 1392 439.13Q1429.11 356.24, 1512 393.35z" fill="rgba(47, 162, 47, 1)"></path><path d="M1488 560L0 560 L0 434.87Q65.69 380.56, 120 446.24Q203.09 409.33, 240 492.41Q284.01 416.43, 360 460.44Q442.17 422.61, 480 504.77Q502.21 406.98, 600 429.18Q670.34 379.52, 720 449.86Q779.19 437.05, 792 496.23Q797.78 430.01, 864 435.79Q931.72 383.51, 984 451.23Q1031.07 378.3, 1104 425.36Q1169.87 371.23, 1224 437.1Q1268.33 409.43, 1296 453.75Q1337.53 423.28, 1368 464.81Q1437.7 414.51, 1488 484.21z" fill="rgba(125, 221, 125, 1)"></path><path d="M1488 560L0 560 L0 552.83Q54.15 486.99, 120 541.14Q160.48 461.62, 240 502.1Q288.43 478.53, 312 526.95Q353.85 448.8, 432 490.65Q479.68 466.33, 504 514.01Q557.24 495.25, 576 548.49Q601.25 501.74, 648 526.98Q689.93 448.92, 768 490.85Q859.6 462.45, 888 554.05Q908.84 502.89, 960 523.73Q1029.37 473.1, 1080 542.47Q1124.57 515.04, 1152 559.6Q1190.24 477.84, 1272 516.08Q1302.42 474.5, 1344 504.93Q1403.55 492.48, 1416 552.02Q1433.56 497.58, 1488 515.14z" fill="rgba(84, 214, 84, 1)"></path></g><defs><mask id="SvgjsMask1234"><rect width="1440" height="560" fill="#ffffff"></rect></mask><linearGradient x1="50%" y1="100%" x2="50%" y2="0%" gradientUnits="userSpaceOnUse" id="SvgjsLinearGradient1235"><stop stop-color="rgba(17, 115, 7, 1)" offset="0.36"></stop><stop stop-color="rgba(65, 247, 46, 1)" offset="0.9"></stop></linearGradient></defs></svg>