<svg xmlns="http://www.w3.org/2000/svg" version="1.1" xmlns:xlink="http://www.w3.org/1999/xlink" xmlns:svgjs="http://svgjs.dev/svgjs" width="1440" height="560" preserveAspectRatio="none" viewBox="0 0 1440 560"><g mask="url(&quot;#SvgjsMask2022&quot;)" fill="none"><rect width="1440" height="560" x="0" y="0" fill="url(&quot;#SvgjsLinearGradient2023&quot;)"></rect><path d="M1464 560L0 560 L0 313.92Q65.96 259.88, 120 325.84Q139.1 272.94, 192 292.04Q262.81 242.85, 312 313.65Q361.99 291.63, 384 341.62Q426.77 312.39, 456 355.17Q478.85 306.02, 528 328.87Q569.29 298.16, 600 339.45Q641.25 308.7, 672 349.95Q691.83 297.78, 744 317.61Q827.72 281.33, 864 365.05Q885.61 314.66, 936 336.27Q1001.83 282.1, 1056 347.93Q1075.36 295.28, 1128 314.64Q1175.92 242.56, 1248 290.49Q1310.83 281.31, 1320 344.14Q1337.2 289.34, 1392 306.54Q1441.15 283.7, 1464 332.85z" fill="rgba(209, 19, 188, 1)"></path><path d="M1512 560L0 560 L0 396.71Q56.69 333.39, 120 390.08Q180.15 378.23, 192 438.37Q238.36 364.73, 312 411.09Q322.95 350.04, 384 361Q452.88 309.88, 504 378.76Q556.78 359.54, 576 412.32Q647.29 363.61, 696 434.89Q729.54 348.43, 816 381.97Q867.93 361.9, 888 413.83Q896.28 350.11, 960 358.39Q1001.22 327.61, 1032 368.83Q1087.64 352.47, 1104 408.11Q1125.97 358.08, 1176 380.05Q1219.14 351.19, 1248 394.33Q1314.79 341.12, 1368 407.9Q1413.26 381.16, 1440 426.43Q1444.82 359.25, 1512 364.07z" fill="rgba(145, 0, 129, 1)"></path><path d="M1560 560L0 560 L0 456.62Q46.9 383.52, 120 430.43Q202.06 392.49, 240 474.55Q248.73 411.28, 312 420.02Q380.97 368.99, 432 437.95Q491.47 425.42, 504 484.89Q572.77 433.66, 624 502.43Q643.34 401.77, 744 421.11Q817.63 374.74, 864 448.37Q944.28 408.65, 984 488.94Q1010.83 443.77, 1056 470.61Q1098.77 393.38, 1176 436.15Q1223.6 411.75, 1248 459.35Q1311.07 450.42, 1320 513.48Q1365.61 439.09, 1440 484.69Q1485.61 410.3, 1560 455.91z" fill="rgba(238, 84, 221, 1)"></path><path d="M1512 560L0 560 L0 542.42Q43.09 513.51, 72 556.6Q81 493.6, 144 502.59Q217.59 456.18, 264 529.78Q322.6 516.38, 336 574.97Q342.07 509.04, 408 515.1Q449.05 484.15, 480 525.2Q566.25 491.46, 600 577.71Q618.41 524.12, 672 542.53Q706.5 457.02, 792 491.52Q837.45 464.97, 864 510.42Q923.87 498.29, 936 558.16Q984.49 534.64, 1008 583.13Q1039.41 494.55, 1128 525.96Q1176.23 454.19, 1248 502.42Q1311.03 493.45, 1320 556.48Q1340.63 505.11, 1392 525.73Q1440.46 454.19, 1512 502.65z" fill="rgba(249, 186, 242, 1)"></path></g><defs><mask id="SvgjsMask2022"><rect width="1440" height="560" fill="#ffffff"></rect></mask><linearGradient x1="84.72%" y1="139.29%" x2="15.28%" y2="-39.29%" gradientUnits="userSpaceOnUse" id="SvgjsLinearGradient2023"><stop stop-color="rgba(115, 7, 96, 1)" offset="0.12"></stop><stop stop-color="rgba(225, 168, 225, 1)" offset="0.91"></stop></linearGradient></defs></svg>