<svg xmlns="http://www.w3.org/2000/svg" version="1.1" xmlns:xlink="http://www.w3.org/1999/xlink" xmlns:svgjs="http://svgjs.dev/svgjs" width="1440" height="560" preserveAspectRatio="none" viewBox="0 0 1440 560"><g mask="url(&quot;#SvgjsMask2725&quot;)" fill="none"><rect width="1440" height="560" x="0" y="0" fill="url(&quot;#SvgjsLinearGradient2726&quot;)"></rect><path d="M1560 560L0 560 L0 291.37Q76.39 247.76, 120 324.16Q180.61 312.77, 192 373.38Q220.88 282.26, 312 311.14Q388.19 267.32, 432 343.51Q444.34 283.85, 504 296.18Q549.6 269.78, 576 315.39Q638.98 306.37, 648 369.35Q697.46 298.81, 768 348.28Q815.11 275.38, 888 322.49Q969.77 284.26, 1008 366.03Q1034.29 272.31, 1128 298.6Q1207.7 258.31, 1248 338.01Q1276.14 294.15, 1320 322.29Q1393.6 275.88, 1440 349.48Q1479.1 268.58, 1560 307.67z" fill="rgba(214, 84, 84, 1)"></path><path d="M1512 560L0 560 L0 373.36Q35.19 336.56, 72 371.75Q162.94 342.69, 192 433.63Q240.6 362.23, 312 410.83Q362.77 341.6, 432 392.36Q490.85 379.21, 504 438.06Q526.75 388.81, 576 411.57Q589.94 353.51, 648 367.45Q715.36 314.81, 768 382.16Q837.58 331.74, 888 401.32Q967.58 360.9, 1008 440.48Q1042.81 355.29, 1128 390.1Q1149.93 340.04, 1200 361.97Q1285.22 327.2, 1320 412.42Q1391.22 363.64, 1440 434.86Q1443.68 366.55, 1512 370.23z" fill="rgba(191, 46, 46, 1)"></path><path d="M1512 560L0 560 L0 454.42Q76.93 411.35, 120 488.27Q144.31 440.58, 192 464.9Q220.43 421.33, 264 449.76Q317.97 383.73, 384 437.69Q479.69 413.38, 504 509.06Q556.41 441.47, 624 493.88Q648.33 446.2, 696 470.53Q713.01 415.54, 768 432.56Q838.75 383.31, 888 454.05Q974.1 420.15, 1008 506.25Q1031.59 409.84, 1128 433.42Q1201.42 386.85, 1248 460.27Q1308.94 449.22, 1320 510.16Q1325.83 443.99, 1392 449.82Q1438.13 375.95, 1512 422.09z" fill="rgba(141, 9, 9, 1)"></path><path d="M1560 560L0 560 L0 548.04Q53.62 529.65, 72 583.27Q95.83 535.1, 144 558.93Q210.25 505.18, 264 571.43Q296 483.43, 384 515.44Q411.8 471.25, 456 499.05Q518.46 489.51, 528 551.97Q575.99 479.96, 648 527.94Q701.97 461.91, 768 515.89Q850.45 478.34, 888 560.78Q955.31 508.09, 1008 575.4Q1050.99 498.39, 1128 541.39Q1170.74 512.13, 1200 554.88Q1269.06 503.94, 1320 573Q1362.8 495.8, 1440 538.59Q1510.28 488.88, 1560 559.16z" fill="rgba(80, 3, 3, 1)"></path></g><defs><mask id="SvgjsMask2725"><rect width="1440" height="560" fill="#ffffff"></rect></mask><linearGradient x1="84.72%" y1="139.29%" x2="15.28%" y2="-39.29%" gradientUnits="userSpaceOnUse" id="SvgjsLinearGradient2726"><stop stop-color="#0e2a47" offset="0"></stop><stop stop-color="rgba(247, 138, 46, 1)" offset="0.48"></stop><stop stop-color="rgba(247, 242, 46, 1)" offset="0.86"></stop></linearGradient></defs></svg>